# xmcd
#
# Track frame offsets: 
#        150
#        11642
#        22652
#        37410
#        49690
#        63132
#        73595
#        84460
#        96120
#        109395
#        119280
#        131167
#        141505
#        151925
#        162365
#        176150
#        185960
#        196810
#        212087
#        221630
#        234072
#        246865
#        255672
#        269765
#        283042
#
# Disc length: 3952 seconds
#
# Revision: 3
# Processed by: cddbd v1.5.2PL0 Copyright (c) Steve Scherf et al.
# Submitted via: ExactAudioCopy v1.1
#
DISCID=790f6e19
DTITLE=Various Artist - Looking For My Baby!: Soul Treasures From the
DTITLE=Vaults of Amy-Mala-Bell [CD1]
DYEAR=2003
DGENRE=R&B
TTITLE0=The Emperors - Karate (mono)
TTITLE1=Jimmy Jones - Personal Property (mono)
TTITLE2=Lou Johnson - (There's) Always Something There To Remind Me (m
TTITLE2=ono)
TTITLE3=The Emotions - Somebody New (mono)
TTITLE4=The Emperors - My Baby Likes To Boogaloo (mono)
TTITLE5=Moses and Joshua Dillard - My Elusive Dreams (mono)
TTITLE6=Oscar Mack - Put Out The Fire (Let Me Go) (mono)
TTITLE7=Gladys Knight and The Pips - Lovers Always Forgive (mono)
TTITLE8=The Attractions - Find Me (mono)
TTITLE9=Ben and Spence - You're The One for Me (mono)
TTITLE10=Don and Juan - Could This Be Love (mono)
TTITLE11=Melvin Davis - Save It (Never Too Late) (mono)
TTITLE12=The Emperors - Looking For My Baby (mono)
TTITLE13=The Four Sonics - It Takes Two (mono)
TTITLE14=Gladys Knight and The Pips - Giving Up (mono)
TTITLE15=Ben and Spence - Woman, Hang Your Head In Shame (mono)
TTITLE16=Don and Juan - Pledging My Love (mono)
TTITLE17=Oscar Mack - I'm Glad It's Over (mono)
TTITLE18=Jay Wiggins - Sad Girl (mono)
TTITLE19=Lou Johnson - Unsatisfied (mono)
TTITLE20=The Emotions - Brushfire (mono)
TTITLE21=Moses and Joshua Dillard - Get Out Of My Heart (mono)
TTITLE22=The Attractions - New Girl In The Neighborhood (mono)
TTITLE23=Ben and Spence - Long Ago (mono)
TTITLE24=The Emperors - Tic-Tac-Toe (mono)
EXTD=
EXTT0=
EXTT1=
EXTT2=
EXTT3=
EXTT4=
EXTT5=
EXTT6=
EXTT7=
EXTT8=
EXTT9=
EXTT10=
EXTT11=
EXTT12=
EXTT13=
EXTT14=
EXTT15=
EXTT16=
EXTT17=
EXTT18=
EXTT19=
EXTT20=
EXTT21=
EXTT22=
EXTT23=
EXTT24=
PLAYORDER=
